<mxfile host="app.diagrams.net" agent="Mozilla/5.0 (Windows NT 10.0; Win64; x64; rv:137.0) Gecko/20100101 Firefox/137.0" version="26.2.14">
  <diagram name="Page-1" id="eHY9byryZ9D-LU_BrjVZ">
    <mxGraphModel dx="3420" dy="1223" grid="1" gridSize="10" guides="1" tooltips="1" connect="1" arrows="1" fold="1" page="1" pageScale="1" pageWidth="850" pageHeight="1100" math="0" shadow="0">
      <root>
        <mxCell id="0" />
        <mxCell id="1" parent="0" />
        <mxCell id="PTohCMmI5ojSAbU1vGkR-63" style="edgeStyle=orthogonalEdgeStyle;rounded=0;orthogonalLoop=1;jettySize=auto;html=1;entryX=0;entryY=0.5;entryDx=0;entryDy=0;" edge="1" parent="1" source="PTohCMmI5ojSAbU1vGkR-2" target="PTohCMmI5ojSAbU1vGkR-3">
          <mxGeometry relative="1" as="geometry" />
        </mxCell>
        <mxCell id="PTohCMmI5ojSAbU1vGkR-2" value="won" style="ellipse;whiteSpace=wrap;html=1;" vertex="1" parent="1">
          <mxGeometry x="420" y="600" width="80" height="80" as="geometry" />
        </mxCell>
        <mxCell id="PTohCMmI5ojSAbU1vGkR-3" value="&lt;div&gt;end of battle&lt;/div&gt;" style="ellipse;whiteSpace=wrap;html=1;" vertex="1" parent="1">
          <mxGeometry x="640" y="760" width="120" height="120" as="geometry" />
        </mxCell>
        <mxCell id="PTohCMmI5ojSAbU1vGkR-64" style="edgeStyle=orthogonalEdgeStyle;rounded=0;orthogonalLoop=1;jettySize=auto;html=1;" edge="1" parent="1" source="PTohCMmI5ojSAbU1vGkR-4" target="PTohCMmI5ojSAbU1vGkR-3">
          <mxGeometry relative="1" as="geometry" />
        </mxCell>
        <mxCell id="PTohCMmI5ojSAbU1vGkR-4" value="lost" style="ellipse;whiteSpace=wrap;html=1;" vertex="1" parent="1">
          <mxGeometry x="420" y="720" width="80" height="80" as="geometry" />
        </mxCell>
        <mxCell id="PTohCMmI5ojSAbU1vGkR-65" style="edgeStyle=orthogonalEdgeStyle;rounded=0;orthogonalLoop=1;jettySize=auto;html=1;" edge="1" parent="1" source="PTohCMmI5ojSAbU1vGkR-5" target="PTohCMmI5ojSAbU1vGkR-3">
          <mxGeometry relative="1" as="geometry" />
        </mxCell>
        <mxCell id="PTohCMmI5ojSAbU1vGkR-5" value="player ran" style="ellipse;whiteSpace=wrap;html=1;" vertex="1" parent="1">
          <mxGeometry x="420" y="840" width="80" height="80" as="geometry" />
        </mxCell>
        <mxCell id="PTohCMmI5ojSAbU1vGkR-66" style="edgeStyle=orthogonalEdgeStyle;rounded=0;orthogonalLoop=1;jettySize=auto;html=1;entryX=0;entryY=0.5;entryDx=0;entryDy=0;" edge="1" parent="1" source="PTohCMmI5ojSAbU1vGkR-6" target="PTohCMmI5ojSAbU1vGkR-3">
          <mxGeometry relative="1" as="geometry" />
        </mxCell>
        <mxCell id="PTohCMmI5ojSAbU1vGkR-6" value="wild ran" style="ellipse;whiteSpace=wrap;html=1;" vertex="1" parent="1">
          <mxGeometry x="420" y="960" width="80" height="80" as="geometry" />
        </mxCell>
        <mxCell id="PTohCMmI5ojSAbU1vGkR-34" style="edgeStyle=orthogonalEdgeStyle;rounded=0;orthogonalLoop=1;jettySize=auto;html=1;entryX=0.5;entryY=0;entryDx=0;entryDy=0;" edge="1" parent="1" source="PTohCMmI5ojSAbU1vGkR-7" target="PTohCMmI5ojSAbU1vGkR-40">
          <mxGeometry relative="1" as="geometry" />
        </mxCell>
        <mxCell id="PTohCMmI5ojSAbU1vGkR-45" style="edgeStyle=orthogonalEdgeStyle;rounded=0;orthogonalLoop=1;jettySize=auto;html=1;entryX=0;entryY=0.5;entryDx=0;entryDy=0;" edge="1" parent="1" source="PTohCMmI5ojSAbU1vGkR-7" target="PTohCMmI5ojSAbU1vGkR-36">
          <mxGeometry relative="1" as="geometry" />
        </mxCell>
        <mxCell id="PTohCMmI5ojSAbU1vGkR-7" value="manage turn actions" style="ellipse;whiteSpace=wrap;html=1;" vertex="1" parent="1">
          <mxGeometry x="-560.07" y="200" width="120" height="120" as="geometry" />
        </mxCell>
        <mxCell id="PTohCMmI5ojSAbU1vGkR-14" style="edgeStyle=orthogonalEdgeStyle;rounded=0;orthogonalLoop=1;jettySize=auto;html=1;entryX=0.5;entryY=0;entryDx=0;entryDy=0;" edge="1" parent="1" source="PTohCMmI5ojSAbU1vGkR-10" target="PTohCMmI5ojSAbU1vGkR-12">
          <mxGeometry relative="1" as="geometry" />
        </mxCell>
        <mxCell id="PTohCMmI5ojSAbU1vGkR-28" style="edgeStyle=orthogonalEdgeStyle;rounded=0;orthogonalLoop=1;jettySize=auto;html=1;curved=1;exitX=0;exitY=0.5;exitDx=0;exitDy=0;entryX=0;entryY=0.5;entryDx=0;entryDy=0;" edge="1" parent="1" source="PTohCMmI5ojSAbU1vGkR-10" target="PTohCMmI5ojSAbU1vGkR-16">
          <mxGeometry relative="1" as="geometry">
            <mxPoint x="-540.07" y="810" as="targetPoint" />
            <Array as="points">
              <mxPoint x="-600.07" y="580" />
              <mxPoint x="-600.07" y="820" />
            </Array>
          </mxGeometry>
        </mxCell>
        <mxCell id="PTohCMmI5ojSAbU1vGkR-29" style="edgeStyle=orthogonalEdgeStyle;rounded=0;orthogonalLoop=1;jettySize=auto;html=1;entryX=0;entryY=0.5;entryDx=0;entryDy=0;exitX=0;exitY=0.5;exitDx=0;exitDy=0;curved=1;" edge="1" parent="1" source="PTohCMmI5ojSAbU1vGkR-10" target="PTohCMmI5ojSAbU1vGkR-26">
          <mxGeometry relative="1" as="geometry">
            <Array as="points">
              <mxPoint x="-630.07" y="580" />
              <mxPoint x="-630.07" y="940" />
            </Array>
          </mxGeometry>
        </mxCell>
        <mxCell id="PTohCMmI5ojSAbU1vGkR-10" value="before action chosen" style="ellipse;whiteSpace=wrap;html=1;aspect=fixed;" vertex="1" parent="1">
          <mxGeometry x="-540.07" y="540" width="80" height="80" as="geometry" />
        </mxCell>
        <mxCell id="PTohCMmI5ojSAbU1vGkR-13" style="edgeStyle=orthogonalEdgeStyle;rounded=0;orthogonalLoop=1;jettySize=auto;html=1;entryX=0.5;entryY=0;entryDx=0;entryDy=0;" edge="1" parent="1" source="PTohCMmI5ojSAbU1vGkR-11" target="PTohCMmI5ojSAbU1vGkR-10">
          <mxGeometry relative="1" as="geometry" />
        </mxCell>
        <mxCell id="PTohCMmI5ojSAbU1vGkR-11" value="start record" style="ellipse;whiteSpace=wrap;html=1;aspect=fixed;" vertex="1" parent="1">
          <mxGeometry x="-540.07" y="420" width="80" height="80" as="geometry" />
        </mxCell>
        <mxCell id="PTohCMmI5ojSAbU1vGkR-17" style="edgeStyle=orthogonalEdgeStyle;rounded=0;orthogonalLoop=1;jettySize=auto;html=1;entryX=0;entryY=0.5;entryDx=0;entryDy=0;exitX=0;exitY=0.5;exitDx=0;exitDy=0;curved=1;" edge="1" parent="1" source="PTohCMmI5ojSAbU1vGkR-12" target="PTohCMmI5ojSAbU1vGkR-16">
          <mxGeometry relative="1" as="geometry">
            <Array as="points">
              <mxPoint x="-590.07" y="700" />
              <mxPoint x="-590.07" y="820" />
            </Array>
          </mxGeometry>
        </mxCell>
        <mxCell id="PTohCMmI5ojSAbU1vGkR-18" style="edgeStyle=orthogonalEdgeStyle;rounded=0;orthogonalLoop=1;jettySize=auto;html=1;entryX=0;entryY=0.5;entryDx=0;entryDy=0;" edge="1" parent="1" source="PTohCMmI5ojSAbU1vGkR-12">
          <mxGeometry relative="1" as="geometry">
            <mxPoint x="-420.06999999999994" y="700" as="targetPoint" />
          </mxGeometry>
        </mxCell>
        <mxCell id="PTohCMmI5ojSAbU1vGkR-25" style="edgeStyle=orthogonalEdgeStyle;rounded=0;orthogonalLoop=1;jettySize=auto;html=1;entryX=0.5;entryY=0;entryDx=0;entryDy=0;" edge="1" parent="1" source="PTohCMmI5ojSAbU1vGkR-12" target="PTohCMmI5ojSAbU1vGkR-16">
          <mxGeometry relative="1" as="geometry" />
        </mxCell>
        <mxCell id="PTohCMmI5ojSAbU1vGkR-30" style="edgeStyle=orthogonalEdgeStyle;rounded=0;orthogonalLoop=1;jettySize=auto;html=1;entryX=0;entryY=0.5;entryDx=0;entryDy=0;exitX=0;exitY=0.5;exitDx=0;exitDy=0;curved=1;" edge="1" parent="1" source="PTohCMmI5ojSAbU1vGkR-12" target="PTohCMmI5ojSAbU1vGkR-26">
          <mxGeometry relative="1" as="geometry">
            <Array as="points">
              <mxPoint x="-610.07" y="700" />
              <mxPoint x="-610.07" y="940" />
            </Array>
          </mxGeometry>
        </mxCell>
        <mxCell id="PTohCMmI5ojSAbU1vGkR-31" style="edgeStyle=orthogonalEdgeStyle;rounded=0;orthogonalLoop=1;jettySize=auto;html=1;exitX=1;exitY=0.5;exitDx=0;exitDy=0;curved=1;entryX=1;entryY=0.5;entryDx=0;entryDy=0;" edge="1" parent="1" source="PTohCMmI5ojSAbU1vGkR-12" target="PTohCMmI5ojSAbU1vGkR-10">
          <mxGeometry relative="1" as="geometry">
            <mxPoint x="-460.07" y="570" as="targetPoint" />
            <Array as="points">
              <mxPoint x="-430.07" y="700" />
              <mxPoint x="-430.07" y="580" />
            </Array>
          </mxGeometry>
        </mxCell>
        <mxCell id="PTohCMmI5ojSAbU1vGkR-12" value="on action chosen" style="ellipse;whiteSpace=wrap;html=1;aspect=fixed;" vertex="1" parent="1">
          <mxGeometry x="-540.07" y="660" width="80" height="80" as="geometry" />
        </mxCell>
        <mxCell id="PTohCMmI5ojSAbU1vGkR-19" style="edgeStyle=orthogonalEdgeStyle;rounded=0;orthogonalLoop=1;jettySize=auto;html=1;entryX=1;entryY=0.5;entryDx=0;entryDy=0;curved=1;exitX=0.5;exitY=0;exitDx=0;exitDy=0;" edge="1" parent="1" source="PTohCMmI5ojSAbU1vGkR-15" target="PTohCMmI5ojSAbU1vGkR-10">
          <mxGeometry relative="1" as="geometry">
            <mxPoint x="-380.06999999999994" y="660" as="sourcePoint" />
          </mxGeometry>
        </mxCell>
        <mxCell id="PTohCMmI5ojSAbU1vGkR-32" style="edgeStyle=orthogonalEdgeStyle;rounded=0;orthogonalLoop=1;jettySize=auto;html=1;entryX=0.5;entryY=0;entryDx=0;entryDy=0;curved=1;" edge="1" parent="1" source="PTohCMmI5ojSAbU1vGkR-15" target="PTohCMmI5ojSAbU1vGkR-12">
          <mxGeometry relative="1" as="geometry">
            <mxPoint x="-380.06999999999994" y="660" as="sourcePoint" />
            <Array as="points">
              <mxPoint x="-380" y="620" />
              <mxPoint x="-500" y="620" />
            </Array>
          </mxGeometry>
        </mxCell>
        <mxCell id="PTohCMmI5ojSAbU1vGkR-15" value="on action case chosen" style="ellipse;whiteSpace=wrap;html=1;aspect=fixed;" vertex="1" parent="1">
          <mxGeometry x="-420.07" y="670" width="80" height="80" as="geometry" />
        </mxCell>
        <mxCell id="PTohCMmI5ojSAbU1vGkR-27" style="edgeStyle=orthogonalEdgeStyle;rounded=0;orthogonalLoop=1;jettySize=auto;html=1;entryX=0.5;entryY=0;entryDx=0;entryDy=0;" edge="1" parent="1" source="PTohCMmI5ojSAbU1vGkR-16" target="PTohCMmI5ojSAbU1vGkR-26">
          <mxGeometry relative="1" as="geometry" />
        </mxCell>
        <mxCell id="PTohCMmI5ojSAbU1vGkR-16" value="action confirmed standby" style="ellipse;whiteSpace=wrap;html=1;aspect=fixed;" vertex="1" parent="1">
          <mxGeometry x="-540.07" y="780" width="80" height="80" as="geometry" />
        </mxCell>
        <mxCell id="PTohCMmI5ojSAbU1vGkR-20" style="edgeStyle=orthogonalEdgeStyle;rounded=0;orthogonalLoop=1;jettySize=auto;html=1;entryX=1;entryY=0.5;entryDx=0;entryDy=0;exitX=0.5;exitY=1;exitDx=0;exitDy=0;curved=1;" edge="1" parent="1" source="PTohCMmI5ojSAbU1vGkR-15" target="PTohCMmI5ojSAbU1vGkR-16">
          <mxGeometry relative="1" as="geometry">
            <mxPoint x="-380.06999999999994" y="740" as="sourcePoint" />
          </mxGeometry>
        </mxCell>
        <mxCell id="PTohCMmI5ojSAbU1vGkR-43" style="edgeStyle=orthogonalEdgeStyle;rounded=0;orthogonalLoop=1;jettySize=auto;html=1;entryX=0.5;entryY=0;entryDx=0;entryDy=0;" edge="1" parent="1" source="PTohCMmI5ojSAbU1vGkR-26" target="PTohCMmI5ojSAbU1vGkR-41">
          <mxGeometry relative="1" as="geometry" />
        </mxCell>
        <mxCell id="PTohCMmI5ojSAbU1vGkR-26" value="action confirmed" style="ellipse;whiteSpace=wrap;html=1;aspect=fixed;" vertex="1" parent="1">
          <mxGeometry x="-540.07" y="900" width="80" height="80" as="geometry" />
        </mxCell>
        <mxCell id="PTohCMmI5ojSAbU1vGkR-47" style="edgeStyle=orthogonalEdgeStyle;rounded=0;orthogonalLoop=1;jettySize=auto;html=1;entryX=0;entryY=0.5;entryDx=0;entryDy=0;" edge="1" parent="1" source="PTohCMmI5ojSAbU1vGkR-36" target="PTohCMmI5ojSAbU1vGkR-46">
          <mxGeometry relative="1" as="geometry" />
        </mxCell>
        <mxCell id="PTohCMmI5ojSAbU1vGkR-36" value="set actions and battlers turn order" style="ellipse;whiteSpace=wrap;html=1;" vertex="1" parent="1">
          <mxGeometry x="-360" y="200" width="120" height="120" as="geometry" />
        </mxCell>
        <mxCell id="PTohCMmI5ojSAbU1vGkR-44" style="edgeStyle=orthogonalEdgeStyle;rounded=0;orthogonalLoop=1;jettySize=auto;html=1;entryX=0.5;entryY=0;entryDx=0;entryDy=0;" edge="1" parent="1" source="PTohCMmI5ojSAbU1vGkR-40" target="PTohCMmI5ojSAbU1vGkR-11">
          <mxGeometry relative="1" as="geometry" />
        </mxCell>
        <mxCell id="PTohCMmI5ojSAbU1vGkR-40" value="for each battler" style="shape=hexagon;perimeter=hexagonPerimeter2;whiteSpace=wrap;html=1;fixedSize=1;size=10;" vertex="1" parent="1">
          <mxGeometry x="-555.07" y="360" width="110" height="20" as="geometry" />
        </mxCell>
        <mxCell id="PTohCMmI5ojSAbU1vGkR-41" value="on all actions confirmed" style="shape=hexagon;perimeter=hexagonPerimeter2;whiteSpace=wrap;html=1;fixedSize=1;size=10;" vertex="1" parent="1">
          <mxGeometry x="-580.07" y="1020" width="160" height="20" as="geometry" />
        </mxCell>
        <mxCell id="PTohCMmI5ojSAbU1vGkR-52" style="edgeStyle=orthogonalEdgeStyle;rounded=0;orthogonalLoop=1;jettySize=auto;html=1;entryX=0.5;entryY=0;entryDx=0;entryDy=0;" edge="1" parent="1" source="PTohCMmI5ojSAbU1vGkR-46" target="PTohCMmI5ojSAbU1vGkR-50">
          <mxGeometry relative="1" as="geometry" />
        </mxCell>
        <mxCell id="PTohCMmI5ojSAbU1vGkR-53" style="edgeStyle=orthogonalEdgeStyle;rounded=0;orthogonalLoop=1;jettySize=auto;html=1;entryX=0;entryY=0.5;entryDx=0;entryDy=0;" edge="1" parent="1" source="PTohCMmI5ojSAbU1vGkR-46" target="PTohCMmI5ojSAbU1vGkR-51">
          <mxGeometry relative="1" as="geometry" />
        </mxCell>
        <mxCell id="PTohCMmI5ojSAbU1vGkR-46" value="check focus punch and clear vars before turn starts" style="ellipse;whiteSpace=wrap;html=1;" vertex="1" parent="1">
          <mxGeometry x="-160" y="200" width="120" height="120" as="geometry" />
        </mxCell>
        <mxCell id="PTohCMmI5ojSAbU1vGkR-50" value="process focus punch" style="ellipse;whiteSpace=wrap;html=1;" vertex="1" parent="1">
          <mxGeometry x="-140" y="360" width="80" height="80" as="geometry" />
        </mxCell>
        <mxCell id="PTohCMmI5ojSAbU1vGkR-58" style="edgeStyle=orthogonalEdgeStyle;rounded=0;orthogonalLoop=1;jettySize=auto;html=1;entryX=0;entryY=0.5;entryDx=0;entryDy=0;" edge="1" parent="1" source="PTohCMmI5ojSAbU1vGkR-51" target="PTohCMmI5ojSAbU1vGkR-54">
          <mxGeometry relative="1" as="geometry" />
        </mxCell>
        <mxCell id="PTohCMmI5ojSAbU1vGkR-60" style="edgeStyle=orthogonalEdgeStyle;rounded=0;orthogonalLoop=1;jettySize=auto;html=1;entryX=0.5;entryY=0;entryDx=0;entryDy=0;" edge="1" parent="1" source="PTohCMmI5ojSAbU1vGkR-51" target="PTohCMmI5ojSAbU1vGkR-59">
          <mxGeometry relative="1" as="geometry" />
        </mxCell>
        <mxCell id="PTohCMmI5ojSAbU1vGkR-51" value="run turn action functions" style="ellipse;whiteSpace=wrap;html=1;" vertex="1" parent="1">
          <mxGeometry x="40" y="200" width="120" height="120" as="geometry" />
        </mxCell>
        <mxCell id="PTohCMmI5ojSAbU1vGkR-56" style="edgeStyle=orthogonalEdgeStyle;rounded=0;orthogonalLoop=1;jettySize=auto;html=1;entryX=0.5;entryY=0;entryDx=0;entryDy=0;" edge="1" parent="1" source="PTohCMmI5ojSAbU1vGkR-54" target="PTohCMmI5ojSAbU1vGkR-55">
          <mxGeometry relative="1" as="geometry" />
        </mxCell>
        <mxCell id="PTohCMmI5ojSAbU1vGkR-54" value="for each battler" style="shape=hexagon;perimeter=hexagonPerimeter2;whiteSpace=wrap;html=1;fixedSize=1;size=10;" vertex="1" parent="1">
          <mxGeometry x="160" y="360" width="110" height="20" as="geometry" />
        </mxCell>
        <mxCell id="PTohCMmI5ojSAbU1vGkR-55" value="sTurnActionsFuncsTable" style="shape=parallelogram;perimeter=parallelogramPerimeter;whiteSpace=wrap;html=1;fixedSize=1;" vertex="1" parent="1">
          <mxGeometry x="125" y="420" width="180" height="20" as="geometry" />
        </mxCell>
        <mxCell id="PTohCMmI5ojSAbU1vGkR-62" style="edgeStyle=orthogonalEdgeStyle;rounded=0;orthogonalLoop=1;jettySize=auto;html=1;entryX=0;entryY=0.5;entryDx=0;entryDy=0;" edge="1" parent="1" source="PTohCMmI5ojSAbU1vGkR-59" target="PTohCMmI5ojSAbU1vGkR-61">
          <mxGeometry relative="1" as="geometry" />
        </mxCell>
        <mxCell id="PTohCMmI5ojSAbU1vGkR-67" style="edgeStyle=orthogonalEdgeStyle;rounded=0;orthogonalLoop=1;jettySize=auto;html=1;entryX=0;entryY=0.5;entryDx=0;entryDy=0;" edge="1" parent="1" source="PTohCMmI5ojSAbU1vGkR-59" target="PTohCMmI5ojSAbU1vGkR-2">
          <mxGeometry relative="1" as="geometry">
            <Array as="points">
              <mxPoint x="310" y="490" />
              <mxPoint x="310" y="640" />
            </Array>
          </mxGeometry>
        </mxCell>
        <mxCell id="PTohCMmI5ojSAbU1vGkR-68" style="edgeStyle=orthogonalEdgeStyle;rounded=0;orthogonalLoop=1;jettySize=auto;html=1;entryX=0;entryY=0.5;entryDx=0;entryDy=0;" edge="1" parent="1" source="PTohCMmI5ojSAbU1vGkR-59" target="PTohCMmI5ojSAbU1vGkR-4">
          <mxGeometry relative="1" as="geometry">
            <Array as="points">
              <mxPoint x="310" y="490" />
              <mxPoint x="310" y="760" />
            </Array>
          </mxGeometry>
        </mxCell>
        <mxCell id="PTohCMmI5ojSAbU1vGkR-69" style="edgeStyle=orthogonalEdgeStyle;rounded=0;orthogonalLoop=1;jettySize=auto;html=1;entryX=0;entryY=0.5;entryDx=0;entryDy=0;" edge="1" parent="1" source="PTohCMmI5ojSAbU1vGkR-59" target="PTohCMmI5ojSAbU1vGkR-5">
          <mxGeometry relative="1" as="geometry">
            <Array as="points">
              <mxPoint x="310" y="490" />
              <mxPoint x="310" y="880" />
            </Array>
          </mxGeometry>
        </mxCell>
        <mxCell id="PTohCMmI5ojSAbU1vGkR-70" style="edgeStyle=orthogonalEdgeStyle;rounded=0;orthogonalLoop=1;jettySize=auto;html=1;entryX=0;entryY=0.5;entryDx=0;entryDy=0;" edge="1" parent="1" source="PTohCMmI5ojSAbU1vGkR-59" target="PTohCMmI5ojSAbU1vGkR-6">
          <mxGeometry relative="1" as="geometry">
            <Array as="points">
              <mxPoint x="310" y="490" />
              <mxPoint x="310" y="1000" />
            </Array>
          </mxGeometry>
        </mxCell>
        <mxCell id="PTohCMmI5ojSAbU1vGkR-72" style="edgeStyle=orthogonalEdgeStyle;rounded=0;orthogonalLoop=1;jettySize=auto;html=1;exitX=1;exitY=0.5;exitDx=0;exitDy=0;" edge="1" parent="1" source="PTohCMmI5ojSAbU1vGkR-59">
          <mxGeometry relative="1" as="geometry">
            <mxPoint x="700" y="880" as="targetPoint" />
            <Array as="points">
              <mxPoint x="310" y="490" />
              <mxPoint x="310" y="1080" />
              <mxPoint x="700" y="1080" />
            </Array>
          </mxGeometry>
        </mxCell>
        <mxCell id="PTohCMmI5ojSAbU1vGkR-59" value="sEndTurnFuncsTable" style="shape=parallelogram;perimeter=parallelogramPerimeter;whiteSpace=wrap;html=1;fixedSize=1;" vertex="1" parent="1">
          <mxGeometry x="10" y="480" width="180" height="20" as="geometry" />
        </mxCell>
        <mxCell id="PTohCMmI5ojSAbU1vGkR-71" style="edgeStyle=orthogonalEdgeStyle;rounded=0;orthogonalLoop=1;jettySize=auto;html=1;entryX=0;entryY=0.5;entryDx=0;entryDy=0;exitX=1;exitY=0.5;exitDx=0;exitDy=0;curved=1;" edge="1" parent="1" source="PTohCMmI5ojSAbU1vGkR-61" target="PTohCMmI5ojSAbU1vGkR-7">
          <mxGeometry relative="1" as="geometry">
            <Array as="points">
              <mxPoint x="600" y="490" />
              <mxPoint x="600" y="40" />
              <mxPoint x="-720" y="40" />
              <mxPoint x="-720" y="260" />
            </Array>
          </mxGeometry>
        </mxCell>
        <mxCell id="PTohCMmI5ojSAbU1vGkR-61" value="continue battle" style="ellipse;whiteSpace=wrap;html=1;" vertex="1" parent="1">
          <mxGeometry x="400" y="430" width="120" height="120" as="geometry" />
        </mxCell>
        <mxCell id="PTohCMmI5ojSAbU1vGkR-74" style="edgeStyle=orthogonalEdgeStyle;rounded=0;orthogonalLoop=1;jettySize=auto;html=1;entryX=0;entryY=0.5;entryDx=0;entryDy=0;" edge="1" parent="1" source="PTohCMmI5ojSAbU1vGkR-73" target="PTohCMmI5ojSAbU1vGkR-7">
          <mxGeometry relative="1" as="geometry" />
        </mxCell>
        <mxCell id="PTohCMmI5ojSAbU1vGkR-79" style="edgeStyle=orthogonalEdgeStyle;rounded=0;orthogonalLoop=1;jettySize=auto;html=1;entryX=0.5;entryY=0;entryDx=0;entryDy=0;" edge="1" parent="1" source="PTohCMmI5ojSAbU1vGkR-73" target="PTohCMmI5ojSAbU1vGkR-75">
          <mxGeometry relative="1" as="geometry" />
        </mxCell>
        <mxCell id="PTohCMmI5ojSAbU1vGkR-73" value="try do events before first turn" style="ellipse;whiteSpace=wrap;html=1;" vertex="1" parent="1">
          <mxGeometry x="-960" y="200" width="120" height="120" as="geometry" />
        </mxCell>
        <mxCell id="PTohCMmI5ojSAbU1vGkR-78" style="edgeStyle=orthogonalEdgeStyle;rounded=0;orthogonalLoop=1;jettySize=auto;html=1;entryX=0.5;entryY=0;entryDx=0;entryDy=0;" edge="1" parent="1" source="PTohCMmI5ojSAbU1vGkR-75" target="PTohCMmI5ojSAbU1vGkR-76">
          <mxGeometry relative="1" as="geometry" />
        </mxCell>
        <mxCell id="PTohCMmI5ojSAbU1vGkR-75" value="compute turn order" style="ellipse;whiteSpace=wrap;html=1;aspect=fixed;" vertex="1" parent="1">
          <mxGeometry x="-940" y="360" width="80" height="80" as="geometry" />
        </mxCell>
        <mxCell id="PTohCMmI5ojSAbU1vGkR-80" style="edgeStyle=orthogonalEdgeStyle;rounded=0;orthogonalLoop=1;jettySize=auto;html=1;entryX=0.5;entryY=0;entryDx=0;entryDy=0;" edge="1" parent="1" source="PTohCMmI5ojSAbU1vGkR-76" target="PTohCMmI5ojSAbU1vGkR-77">
          <mxGeometry relative="1" as="geometry" />
        </mxCell>
        <mxCell id="PTohCMmI5ojSAbU1vGkR-76" value="overworld weather" style="ellipse;whiteSpace=wrap;html=1;aspect=fixed;" vertex="1" parent="1">
          <mxGeometry x="-940" y="480" width="80" height="80" as="geometry" />
        </mxCell>
        <mxCell id="PTohCMmI5ojSAbU1vGkR-82" style="edgeStyle=orthogonalEdgeStyle;rounded=0;orthogonalLoop=1;jettySize=auto;html=1;entryX=0.5;entryY=0;entryDx=0;entryDy=0;" edge="1" parent="1" source="PTohCMmI5ojSAbU1vGkR-77" target="PTohCMmI5ojSAbU1vGkR-81">
          <mxGeometry relative="1" as="geometry" />
        </mxCell>
        <mxCell id="PTohCMmI5ojSAbU1vGkR-77" value="process switch-in abilities" style="ellipse;whiteSpace=wrap;html=1;aspect=fixed;" vertex="1" parent="1">
          <mxGeometry x="-940" y="600" width="80" height="80" as="geometry" />
        </mxCell>
        <mxCell id="PTohCMmI5ojSAbU1vGkR-85" style="edgeStyle=orthogonalEdgeStyle;rounded=0;orthogonalLoop=1;jettySize=auto;html=1;entryX=0.5;entryY=0;entryDx=0;entryDy=0;" edge="1" parent="1" source="PTohCMmI5ojSAbU1vGkR-81" target="PTohCMmI5ojSAbU1vGkR-83">
          <mxGeometry relative="1" as="geometry" />
        </mxCell>
        <mxCell id="PTohCMmI5ojSAbU1vGkR-81" value="process switch-in hold items" style="ellipse;whiteSpace=wrap;html=1;aspect=fixed;" vertex="1" parent="1">
          <mxGeometry x="-940" y="720" width="80" height="80" as="geometry" />
        </mxCell>
        <mxCell id="PTohCMmI5ojSAbU1vGkR-83" value="clean up turn values" style="ellipse;whiteSpace=wrap;html=1;aspect=fixed;" vertex="1" parent="1">
          <mxGeometry x="-940" y="840" width="80" height="80" as="geometry" />
        </mxCell>
        <mxCell id="PTohCMmI5ojSAbU1vGkR-87" style="edgeStyle=orthogonalEdgeStyle;rounded=0;orthogonalLoop=1;jettySize=auto;html=1;entryX=0;entryY=0.5;entryDx=0;entryDy=0;" edge="1" parent="1" source="PTohCMmI5ojSAbU1vGkR-86" target="PTohCMmI5ojSAbU1vGkR-73">
          <mxGeometry relative="1" as="geometry" />
        </mxCell>
        <mxCell id="PTohCMmI5ojSAbU1vGkR-86" value="battle intro" style="ellipse;whiteSpace=wrap;html=1;" vertex="1" parent="1">
          <mxGeometry x="-1160" y="200" width="120" height="120" as="geometry" />
        </mxCell>
      </root>
    </mxGraphModel>
  </diagram>
</mxfile>
